<svg width="12" height="12" viewBox="0 0 11 12" fill="none" xmlns="http://www.w3.org/2000/svg">
<defs>
<symbol id="icon-secure-yes">
  <rect y="0.350006" width="11" height="11" rx="5.5" fill="#7ED321"/>
  <path fill-rule="evenodd" clip-rule="evenodd" d="M8.26869 4.11381C8.46899 4.31439 8.46899 4.63963 8.26869 4.84021L4.9491 8.16448C4.84895 8.26477 4.7176 8.31507 4.58656 8.31507C4.45553 8.31507 4.32418 8.26477 4.22403 8.16448L2.81819 6.75667C2.61789 6.55608 2.61789 6.23084 2.81819 6.03026C3.01849 5.82968 3.34328 5.82968 3.54357 6.03026L4.58656 7.07472L7.54362 4.1135C7.74392 3.91323 8.06839 3.91323 8.26869 4.11381Z" fill="white"/>
</symbol>
<symbol id="icon-secure-not">
  <rect width="11" height="11" rx="5.5" fill="#D34C21"/>
  <path d="M5.5 5.5L7.5 7.5M5.5 5.5L3.5 3.5M5.5 5.5L7.5 3.5L3.5 7.5" stroke="white" stroke-linecap="round" stroke-linejoin="round"/>
</symbol>
</defs>
</svg>
